<svg t="1730279310938" class="icon" viewBox="0 0 1024 1024" version="1.1" xmlns="http://www.w3.org/2000/svg" p-id="1592"
     id="mx_n_1730279310938" width="16" height="16">
    <path d="M879.30655 67.611887c-7.362688-3.827165-13.541411-4.582365-22.673395-2.090614-9.92914 2.838651-13.927197 8.414647-18.927072 17.45044L666.396439 391.227356l-148.607596-69.176522-0.73064-0.39295a5.071506 5.071506 0 0 1-0.956792-0.450255 5.373381 5.373381 0 0 0-0.785899-0.336668l-1.068332-0.393972c-0.257873-0.121773-0.520863-0.23536-0.787945-0.337691-0.337691-0.11154-0.731664-0.167822-1.068332-0.337691l-0.843204-0.225128-1.01205-0.337691-0.843204-0.225127-0.956792-0.225128-0.955768-0.167822-1.013073-0.225127-0.955768-0.111541a5.564739 5.564739 0 0 1-0.956791-0.113587l-0.955768-0.056281c-0.281409 0-0.506537-0.168846-0.843204-0.168846h-1.013074l-0.955768-0.056282h-3.825118c-0.167822 0.113587-0.562818 0.113587-0.786923 0.168846l-0.956791 0.056282c-0.281409 0.11154-0.674359 0.11154-0.955768 0.168845l-0.899486 0.11154a4.799306 4.799306 0 0 1-0.956791 0.225128l-0.899487 0.225127c-0.281409 0-0.562818 0.11154-0.955768 0.224104-0.260943 0.062422-0.523933 0.118704-0.787945 0.168846a6.216585 6.216585 0 0 1-0.956792 0.281409l-0.899486 0.281409a5.003967 5.003967 0 0 0-0.843204 0.281409l-0.843204 0.337691a7.958252 7.958252 0 0 1-0.899486 0.28141c-0.270153 0.154519-0.552585 0.286526-0.843205 0.393973l-0.843204 0.392949-0.899486 0.39295a3.602038 3.602038 0 0 1-0.787946 0.450254c-0.337691 0.11154-0.618077 0.337691-0.843204 0.450255l-0.787946 0.449232-0.843204 0.506536-0.787946 0.450255-0.786923 0.562818-0.787945 0.562819-0.731664 0.562818-0.787946 0.562819-0.618077 0.618076c-0.337691 0.167822-0.562818 0.39295-0.787946 0.618077l-0.73064 0.618077a3.835352 3.835352 0 0 1-0.675383 0.675382l-0.562818 0.618077-0.786922 0.787946-0.562819 0.674359-0.731664 0.731664c-0.169869 0.23843-0.358157 0.463558-0.562818 0.674359l-0.562819 0.843204c-0.183172 0.24764-0.37146 0.491187-0.562818 0.731664l-0.618077 0.899486-0.506537 0.730641-0.562818 0.956791-0.450255 0.787946-0.505513 0.843204-0.393973 0.730641c-60.233849 117.093858-174.121689 213.208916-318.266647 267.818675-15.742543 5.929036-25.871227 21.327748-25.083282 38.130435a38.865169 38.865169 0 0 0 18.559705 34.982746l440.139345 268.887006a37.708833 37.708833 0 0 0 12.148692 4.837169c15.117302 8.851599 34.289967 6.478552 46.791699-5.792937C767.105119 823.044152 840.105736 664.837944 840.61125 509.2207a39.311331 39.311331 0 0 0-6.6914-21.933545 38.518269 38.518269 0 0 0-15.635095-14.285354l-93.190449-46.905286 169.733753-305.387316c10.356882-18.798135 5.412266-41.391712-13.341867-51.827389l-2.179642-1.269923zM609.482195 879.259478l-88.898703-52.928466 49.859572-46.650483c15.276938-15.065114 26.875091-40.942481 12.758581-55.05899-12.795421-12.795421-36.354999-11.175527-51.763944 3.774976l-69.468164 63.724347-98.017385-63.708997 60.10696-35.627429c17.6111-12.33084 23.400966-37.062104 12.856819-52.018747-9.228175-15.798824-36.604686-15.300474-54.216809-2.969635l-80.143295 49.649794-78.147848-43.540656c71.112618-34.403554 144.655588-86.126566 200.288653-142.213979l313.486784 173.804465c-26.770713 67.320245-71.962985 147.505495-126.572744 205.602681l-2.128477-1.838881zM768.691243 541.715789c-1.462305 24.690332-6.160303 47.238884-11.670807 71.871911L463.142246 448.217325c11.040451-14.663978 37.823444-44.149523 47.354517-59.836807L768.691243 520.843412v20.872377z"
          p-id="1593" fill="#6E6E6E"></path>
</svg>